<svg xmlns="http://www.w3.org/2000/svg" viewBox="0 0 386.91 286.32"><defs><style>.cls-1{isolation:isolate;}.cls-2{fill:#ddf6f5;}.cls-3{fill:#53d1ce;}.cls-4{fill:#98e3e2;}.cls-5{fill:#263b40;}.cls-6{fill:#b00000;}.cls-7{fill:#01bbb6;}.cls-8{fill:#fff;}.cls-8,.cls-9{mix-blend-mode:soft-light;}.cls-9{fill:#454556;}</style></defs><g class="cls-1"><g id="Background"><path class="cls-2" d="M344,80.66c-.57-.78-2.24-.54-3.73.55s-2.23,2.58-1.67,3.36l42.18,57.6c.58.77,2.24.53,3.74-.56s2.24-2.58,1.67-3.37Z" transform="translate(-36.07 -59.53)"/><polygon class="cls-3" points="319.89 37.52 338.08 62.33 381.13 31.05 362.95 6.24 319.89 37.52"/><path class="cls-2" d="M177.62,226.59l17.74,24.22a5.92,5.92,0,0,0,8.24,1.29L374.72,128.28,350,94.56,178.92,218.37A5.87,5.87,0,0,0,177.62,226.59Z" transform="translate(-36.07 -59.53)"/><polygon class="cls-2" points="131.12 184.57 139.74 196.34 154.91 185.31 146.29 173.53 131.12 184.57"/><polygon class="cls-4" points="109.17 197.77 120.43 213.12 145.62 194.82 134.36 179.46 109.17 197.77"/><polygon class="cls-5" points="0 286.32 9.6 283.65 115.64 206.59 113.58 203.78 0 286.32"/><polygon class="cls-4" points="130.79 178.91 144.68 197.84 148.01 195.42 134.14 176.48 130.79 178.91"/><polygon class="cls-4" points="199.99 124.13 218.17 148.93 332.68 66.25 314.51 41.44 199.99 124.13"/><polygon class="cls-2" points="207.95 135 210.2 138.05 372.12 20.91 369.89 17.86 207.95 135"/><polygon class="cls-6" points="149.25 161 167.42 185.81 213.47 152.35 195.29 127.53 149.25 161"/><polygon class="cls-5" points="195.29 127.53 213.47 152.35 218.17 148.93 199.99 124.13 195.29 127.53"/><path class="cls-4" d="M398.72,59.69c-.33-.45-1.8.07-3.29,1.15s-2.44,2.31-2.11,2.77l24.19,33c.34.45,1.81-.06,3.29-1.14s2.44-2.32,2.12-2.78Z" transform="translate(-36.07 -59.53)"/><path class="cls-7" d="M374.15,121.86l-8.06-11.28,40.43-28.94,8,10.9s-8.17-5-8.76-4.64-33,23.51-33,23.51Z" transform="translate(-36.07 -59.53)"/><path class="cls-8" d="M235.05,186,187.5,220.18a.78.78,0,0,0-.17,1.09l4.15,5.72a.78.78,0,0,0,1.09.18L240.11,193a.77.77,0,0,0,.18-1.08l-4.15-5.73A.78.78,0,0,0,235.05,186Z" transform="translate(-36.07 -59.53)"/><path class="cls-9" d="M360.7,114.79,357.06,124,201.87,234.88,191,229l-7.48,5.65,11.85,16.65a5.61,5.61,0,0,0,7.84,1.28L372,130.24Z" transform="translate(-36.07 -59.53)"/></g></g></svg>